<?xml version="1.0" encoding="UTF-8" standalone="no"?>
<svg
   xmlns:dc="http://purl.org/dc/elements/1.1/"
   xmlns:cc="http://creativecommons.org/ns#"
   xmlns:rdf="http://www.w3.org/1999/02/22-rdf-syntax-ns#"
   xmlns:svg="http://www.w3.org/2000/svg"
   xmlns="http://www.w3.org/2000/svg"
   id="svg923"
   version="1.1"
   viewBox="0 0 25.458333 25.458334"
   height="96.220474"
   width="96.220474">
  <defs
     id="defs917" />
  <metadata
     id="metadata920">
    <rdf:RDF>
      <cc:Work
         rdf:about="">
        <dc:format>image/svg+xml</dc:format>
        <dc:type
           rdf:resource="http://purl.org/dc/dcmitype/StillImage" />
        <dc:title></dc:title>
      </cc:Work>
    </rdf:RDF>
  </metadata>
  <g
     transform="translate(-0.5,-271.04165)"
     id="layer1">
    <circle
       style="opacity:1;vector-effect:none;fill:#000000;fill-opacity:0.00549448;stroke:none;stroke-width:1;stroke-linecap:butt;stroke-linejoin:miter;stroke-miterlimit:4;stroke-dasharray:none;stroke-dashoffset:0;stroke-opacity:1"
       id="circle439044"
       cx="-13.229167"
       cy="283.77081"
       transform="scale(-1,1)"
       r="12.729167" />
    <path
       id="path439186"
       d="m 13.956769,295.47863 c 0.904258,-0.22075 2.711979,-0.66146 2.711979,-0.66146 l -0.190233,-0.81061 0.187087,-1.35639 0.678198,-1.14592 1.426549,-1.14591 1.637027,-1.59026 0.491107,-0.79513 -0.210474,-0.18708 -0.584652,0.72496 -1.028988,1.12254 -2.011202,1.05237 -1.192691,0.53788 -1.403165,1.26285 -0.608039,1.49671 z"
       style="fill:#d5d1ca;fill-opacity:0.42056077;stroke:none;stroke-width:0.26458332px;stroke-linecap:butt;stroke-linejoin:miter;stroke-opacity:1" />
    <path
       id="path439146"
       d="m 6.3499983,285.22602 c -0.6745805,-1.84821 -0.6018522,-3.95733 0.198438,-5.75468 0.6392506,-1.43568 1.731758,-2.66619 3.083808,-3.4673 1.3520497,-0.80111 2.9574477,-1.16839 4.5229627,-1.03062 1.554401,0.13679 3.05323,0.76574 4.279007,1.73132 1.225777,0.96558 2.180315,2.25995 2.798596,3.69264 0.860383,1.99369 1.059493,4.31754 0.288531,6.34749 -0.501365,1.3201 -1.391468,2.47477 -2.471343,3.38466 -0.69572,0.5862 -1.486327,1.09275 -1.992401,1.84876 -0.549993,0.82162 -0.697651,1.89963 -0.388849,2.83888 l -2.711979,0.66146 c -0.151293,-0.70078 -0.10115,-1.44386 0.142919,-2.11795 0.244069,-0.6741 0.681276,-1.27703 1.246143,-1.71851 0.793342,-0.62004 1.792442,-0.90294 2.681095,-1.37638 1.119337,-0.59633 2.065976,-1.50586 2.728402,-2.5874 0.662426,-1.08154 1.041538,-2.33141 1.117133,-3.59743 0.06898,-1.15522 -0.112973,-2.32479 -0.529641,-3.40446"
       style="opacity:1;vector-effect:none;fill:none;fill-opacity:1;stroke:#ffffff;stroke-width:0.30000001;stroke-linecap:round;stroke-linejoin:miter;stroke-miterlimit:4;stroke-dasharray:none;stroke-dashoffset:0;stroke-opacity:1" />
    <path
       id="ellipse439144"
       d="m 13.229165,276.71388 a 7.0584544,7.0584774 0 0 0 -7.0584827,7.05848 7.0584544,7.0584774 0 0 0 7.0584827,7.05849 7.0584544,7.0584774 0 0 0 7.058482,-7.05849 7.0584544,7.0584774 0 0 0 -7.058482,-7.05848 z m 0,2.05827 a 5.0004853,5.0005025 0 0 1 1.876888,0.36897 l -1.542026,2.67116 a 1.9908611,1.9908685 0 0 0 -0.334862,-0.0305 1.9908611,1.9908685 0 0 0 -0.335897,0.0284 l -1.541507,-2.66909 a 5.0004853,5.0005025 0 0 1 1.877404,-0.36897 z m -3.073197,1.05782 1.542024,2.67064 a 1.9908611,1.9908685 0 0 0 -0.333314,0.58187 H 8.2826973 a 5.0004853,5.0005025 0 0 1 1.8732707,-3.25251 z m 6.144327,0.004 a 5.0004853,5.0005025 0 0 1 1.875856,3.2489 h -3.080952 a 1.9908611,1.9908685 0 0 0 -0.335377,-0.58033 z m -3.07113,2.91352 1.02526,1.02526 -1.02526,1.02526 -1.025261,-1.02526 z m -4.9469857,1.71514 H 11.36313 a 1.9908611,1.9908685 0 0 0 0.335896,0.58136 l -1.540475,2.66806 a 5.0004853,5.0005025 0 0 1 -1.8763717,-3.24942 z m 6.8119887,0 h 3.081464 a 5.0004853,5.0005025 0 0 1 -1.873787,3.25252 l -1.541507,-2.67012 a 1.9908611,1.9908685 0 0 0 0.33383,-0.5824 z m -2.199865,1.27073 a 1.9908611,1.9908685 0 0 0 0.334862,0.0305 1.9908611,1.9908685 0 0 0 0.335896,-0.0284 l 1.540992,2.66909 a 5.0004853,5.0005025 0 0 1 -1.876888,0.36897 5.0004853,5.0005025 0 0 1 -1.876888,-0.36897 z"
       style="color:#000000;clip-rule:nonzero;display:inline;overflow:visible;visibility:visible;opacity:1;isolation:auto;mix-blend-mode:normal;color-interpolation:sRGB;color-interpolation-filters:linearRGB;solid-color:#000000;solid-opacity:1;fill:#767676;fill-opacity:1;fill-rule:evenodd;stroke:#ffffff;stroke-width:0.5;stroke-linecap:round;stroke-linejoin:miter;stroke-miterlimit:4;stroke-dasharray:none;stroke-dashoffset:0;stroke-opacity:1;color-rendering:auto;image-rendering:auto;shape-rendering:auto;text-rendering:auto;enable-background:accumulate" />
    <path
       id="path439188"
       d="m 14.441957,294.73372 1.615873,-0.37649 c -0.08553,-0.28703 -0.07084,-0.59907 -0.04309,-0.91437 l -1.551241,0.36574 c -0.0763,0.30838 -0.05901,0.61675 -0.02154,0.92512 z"
       style="fill:#343029;fill-opacity:1;stroke:#ffffff;stroke-width:0.1;stroke-linecap:butt;stroke-linejoin:miter;stroke-miterlimit:4;stroke-dasharray:none;stroke-opacity:1" />
    <path
       style="fill:#343029;fill-opacity:1;stroke:#ffffff;stroke-width:0.1;stroke-linecap:butt;stroke-linejoin:miter;stroke-miterlimit:4;stroke-dasharray:none;stroke-opacity:1"
       d="m 16.06991,293.02683 c 0.06648,-0.29872 0.233179,-0.62246 0.401246,-0.87929 l -1.454774,0.34236 c -0.240003,0.30838 -0.342566,0.58166 -0.43784,0.87324 z"
       id="path439190" />
    <path
       id="path439201"
       d="m 15.304491,292.14654 1.364258,-0.31833 0.367935,-0.42995 -1.252635,0.31006 z"
       style="opacity:1;vector-effect:none;fill:#343029;fill-opacity:1;stroke:#ffffff;stroke-width:0.1;stroke-linecap:butt;stroke-linejoin:miter;stroke-miterlimit:4;stroke-dasharray:none;stroke-dashoffset:0;stroke-opacity:1" />
    <path
       id="path439208"
       d="m 16.292545,291.39826 1.000455,-0.24805 0.248047,-0.20257 -0.756544,0.19844 z"
       style="opacity:1;vector-effect:none;fill:#343029;fill-opacity:1;stroke:#ffffff;stroke-width:0.1;stroke-linecap:butt;stroke-linejoin:miter;stroke-miterlimit:4;stroke-dasharray:none;stroke-dashoffset:0;stroke-opacity:1" />
  </g>
</svg>
