<?xml version="1.0" encoding="UTF-8" standalone="no"?>
<!-- Created with Inkscape (http://www.inkscape.org/) -->

<svg
   xmlns:dc="http://purl.org/dc/elements/1.1/"
   xmlns:cc="http://creativecommons.org/ns#"
   xmlns:rdf="http://www.w3.org/1999/02/22-rdf-syntax-ns#"
   xmlns:svg="http://www.w3.org/2000/svg"
   xmlns="http://www.w3.org/2000/svg"
   xmlns:sodipodi="http://sodipodi.sourceforge.net/DTD/sodipodi-0.dtd"
   xmlns:inkscape="http://www.inkscape.org/namespaces/inkscape"
   width="96.220474"
   height="96.220474"
   viewBox="0 0 25.458333 25.458334"
   version="1.1"
   id="svg923"
   inkscape:version="0.92.3 (2405546, 2018-03-11)"
   sodipodi:docname="meta-0a13d44e.svg">
  <defs
     id="defs917">
    <inkscape:path-effect
       effect="spiro"
       id="path-effect439148"
       is_visible="true" />
    <clipPath
       clipPathUnits="userSpaceOnUse"
       id="clipPath439132">
      <path
         style="color:#000000;font-style:normal;font-variant:normal;font-weight:normal;font-stretch:normal;font-size:medium;line-height:normal;font-family:sans-serif;font-variant-ligatures:normal;font-variant-position:normal;font-variant-caps:normal;font-variant-numeric:normal;font-variant-alternates:normal;font-feature-settings:normal;text-indent:0;text-align:start;text-decoration:none;text-decoration-line:none;text-decoration-style:solid;text-decoration-color:#000000;letter-spacing:normal;word-spacing:normal;text-transform:none;writing-mode:lr-tb;direction:ltr;text-orientation:mixed;dominant-baseline:auto;baseline-shift:baseline;text-anchor:start;white-space:normal;shape-padding:0;clip-rule:nonzero;display:inline;overflow:visible;visibility:visible;opacity:1;isolation:auto;mix-blend-mode:normal;color-interpolation:sRGB;color-interpolation-filters:linearRGB;solid-color:#000000;solid-opacity:1;vector-effect:none;fill:#000000;fill-opacity:1;fill-rule:nonzero;stroke:none;stroke-width:1.05833352;stroke-linecap:butt;stroke-linejoin:miter;stroke-miterlimit:4;stroke-dasharray:none;stroke-dashoffset:0;stroke-opacity:1;color-rendering:auto;image-rendering:auto;shape-rendering:auto;text-rendering:auto;enable-background:accumulate"
         d="m -76.10547,283.60352 c 0,0.14373 0.125074,0.38781 0.57422,0.68554 0.449146,0.29774 1.16485,0.60121 2.068359,0.85547 1.80702,0.50853 4.366493,0.83848 7.203125,0.84961 2.836633,0.0111 5.426139,-0.29951 7.289062,-0.79492 0.931463,-0.24771 1.681131,-0.54385 2.169922,-0.84375 0.488794,-0.2999 0.66271,-0.57535 0.677736,-0.72266 l 1.052735,0.10742 c -0.06634,0.65043 -0.548273,1.13257 -1.175782,1.51758 -0.62751,0.38501 -1.455592,0.70009 -2.451172,0.96485 -1.991161,0.52951 -4.653097,0.84152 -7.568361,0.83007 -2.915261,-0.0114 -5.541402,-0.34438 -7.482422,-0.89062 -0.97051,-0.27312 -1.770311,-0.59457 -2.367185,-0.99023 -0.596876,-0.39567 -1.048829,-0.91405 -1.048829,-1.56836 z"
         id="path439134"
         inkscape:connector-curvature="0" />
    </clipPath>
  </defs>
  <sodipodi:namedview
     id="base"
     pagecolor="#252525"
     bordercolor="#666666"
     borderopacity="1.0"
     inkscape:pageopacity="0"
     inkscape:pageshadow="2"
     inkscape:zoom="15.839192"
     inkscape:cx="50.172713"
     inkscape:cy="21.727362"
     inkscape:document-units="mm"
     inkscape:current-layer="layer1"
     showgrid="false"
     units="px"
     inkscape:window-width="1920"
     inkscape:window-height="1017"
     inkscape:window-x="-8"
     inkscape:window-y="-8"
     inkscape:window-maximized="1"
     fit-margin-top="0"
     fit-margin-left="0"
     fit-margin-right="0"
     fit-margin-bottom="0" />
  <metadata
     id="metadata920">
    <rdf:RDF>
      <cc:Work
         rdf:about="">
        <dc:format>image/svg+xml</dc:format>
        <dc:type
           rdf:resource="http://purl.org/dc/dcmitype/StillImage" />
        <dc:title></dc:title>
      </cc:Work>
    </rdf:RDF>
  </metadata>
  <g
     inkscape:label="Layer 1"
     inkscape:groupmode="layer"
     id="layer1"
     transform="translate(-0.49998856,-271.04165)">
    <circle
       r="12.729167"
       transform="scale(-1,1)"
       cy="283.77081"
       cx="-13.229156"
       id="circle437133"
       style="opacity:1;vector-effect:none;fill:#f5f5f5;fill-opacity:0;stroke:none;stroke-width:1;stroke-linecap:butt;stroke-linejoin:miter;stroke-miterlimit:4;stroke-dasharray:none;stroke-dashoffset:0;stroke-opacity:1" />
    <path
       inkscape:connector-curvature="0"
       id="path437135"
       d="m 13.229421,272.44386 c -6.2377367,0 -11.3264434,5.09025 -11.3264434,11.32799 0,6.23774 5.0887067,11.32592 11.3264434,11.32592 6.237737,10e-6 11.325934,-5.08817 11.325934,-11.32592 0,-6.23775 -5.088177,-11.328 -11.325934,-11.32799 z m -1.50016,3.13573 v 7.49101 l -5.7438467,4.81935 c -0.68818,-1.21305 -1.08209,-2.61692 -1.08209,-4.1181 0,-4.10361 2.93211,-7.49004 6.8259367,-8.19226 z m 3.00032,0 c 3.893817,0.70222 6.825954,4.08865 6.825954,8.19226 0,1.50122 -0.39441,2.90503 -1.082617,4.1181 l -5.743337,-4.81935 z m -3.00032,11.4086 v 4.97386 c -1.436,-0.25885 -2.7413767,-0.88095 -3.8168267,-1.77147 z m 3.00032,0 3.816827,3.20239 c -1.07543,0.89052 -2.38083,1.51262 -3.816827,1.77147 z"
       style="color:#000000;font-style:normal;font-variant:normal;font-weight:normal;font-stretch:normal;font-size:medium;line-height:normal;font-family:sans-serif;font-variant-ligatures:normal;font-variant-position:normal;font-variant-caps:normal;font-variant-numeric:normal;font-variant-alternates:normal;font-feature-settings:normal;text-indent:0;text-align:start;text-decoration:none;text-decoration-line:none;text-decoration-style:solid;text-decoration-color:#000000;letter-spacing:normal;word-spacing:normal;text-transform:none;writing-mode:lr-tb;direction:ltr;text-orientation:mixed;dominant-baseline:auto;baseline-shift:baseline;text-anchor:start;white-space:normal;shape-padding:0;clip-rule:nonzero;display:inline;overflow:visible;visibility:visible;opacity:1;isolation:auto;mix-blend-mode:normal;color-interpolation:sRGB;color-interpolation-filters:linearRGB;solid-color:#000000;solid-opacity:1;vector-effect:none;fill:#3142a4;fill-opacity:1;fill-rule:nonzero;stroke:none;stroke-width:3;stroke-linecap:butt;stroke-linejoin:miter;stroke-miterlimit:4;stroke-dasharray:none;stroke-dashoffset:0;stroke-opacity:1;color-rendering:auto;image-rendering:auto;shape-rendering:auto;text-rendering:auto;enable-background:accumulate" />
  </g>
</svg>
