<?xml version="1.0" encoding="UTF-8" standalone="no"?>
<svg
   xmlns:dc="http://purl.org/dc/elements/1.1/"
   xmlns:cc="http://creativecommons.org/ns#"
   xmlns:rdf="http://www.w3.org/1999/02/22-rdf-syntax-ns#"
   xmlns:svg="http://www.w3.org/2000/svg"
   xmlns="http://www.w3.org/2000/svg"
   id="svg923"
   version="1.1"
   viewBox="0 0 25.458333 25.458334"
   height="96.220474"
   width="96.220474">
  <defs
     id="defs917">
    <clipPath
       id="clipPath439132"
       clipPathUnits="userSpaceOnUse">
      <path
         id="path439134"
         d="m -76.10547,283.60352 c 0,0.14373 0.125074,0.38781 0.57422,0.68554 0.449146,0.29774 1.16485,0.60121 2.068359,0.85547 1.80702,0.50853 4.366493,0.83848 7.203125,0.84961 2.836633,0.0111 5.426139,-0.29951 7.289062,-0.79492 0.931463,-0.24771 1.681131,-0.54385 2.169922,-0.84375 0.488794,-0.2999 0.66271,-0.57535 0.677736,-0.72266 l 1.052735,0.10742 c -0.06634,0.65043 -0.548273,1.13257 -1.175782,1.51758 -0.62751,0.38501 -1.455592,0.70009 -2.451172,0.96485 -1.991161,0.52951 -4.653097,0.84152 -7.568361,0.83007 -2.915261,-0.0114 -5.541402,-0.34438 -7.482422,-0.89062 -0.97051,-0.27312 -1.770311,-0.59457 -2.367185,-0.99023 -0.596876,-0.39567 -1.048829,-0.91405 -1.048829,-1.56836 z"
         style="color:#000000;font-style:normal;font-variant:normal;font-weight:normal;font-stretch:normal;font-size:medium;line-height:normal;font-family:sans-serif;font-variant-ligatures:normal;font-variant-position:normal;font-variant-caps:normal;font-variant-numeric:normal;font-variant-alternates:normal;font-feature-settings:normal;text-indent:0;text-align:start;text-decoration:none;text-decoration-line:none;text-decoration-style:solid;text-decoration-color:#000000;letter-spacing:normal;word-spacing:normal;text-transform:none;writing-mode:lr-tb;direction:ltr;text-orientation:mixed;dominant-baseline:auto;baseline-shift:baseline;text-anchor:start;white-space:normal;shape-padding:0;clip-rule:nonzero;display:inline;overflow:visible;visibility:visible;opacity:1;isolation:auto;mix-blend-mode:normal;color-interpolation:sRGB;color-interpolation-filters:linearRGB;solid-color:#000000;solid-opacity:1;vector-effect:none;fill:#000000;fill-opacity:1;fill-rule:nonzero;stroke:none;stroke-width:1.05833352;stroke-linecap:butt;stroke-linejoin:miter;stroke-miterlimit:4;stroke-dasharray:none;stroke-dashoffset:0;stroke-opacity:1;color-rendering:auto;image-rendering:auto;shape-rendering:auto;text-rendering:auto;enable-background:accumulate" />
    </clipPath>
  </defs>
  <metadata
     id="metadata920">
    <rdf:RDF>
      <cc:Work
         rdf:about="">
        <dc:format>image/svg+xml</dc:format>
        <dc:type
           rdf:resource="http://purl.org/dc/dcmitype/StillImage" />
        <dc:title></dc:title>
      </cc:Work>
    </rdf:RDF>
  </metadata>
  <g
     transform="translate(-0.49999619,-271.04165)"
     id="layer1">
    <circle
       r="12.729167"
       transform="scale(-1,1)"
       cy="283.77081"
       cx="-13.229163"
       id="circle439046"
       style="opacity:1;vector-effect:none;fill:#000000;fill-opacity:0;stroke:none;stroke-width:1;stroke-linecap:butt;stroke-linejoin:miter;stroke-miterlimit:4;stroke-dasharray:none;stroke-dashoffset:0;stroke-opacity:1" />
    <circle
       style="opacity:1;vector-effect:none;fill:#e5e5e5;fill-opacity:1;stroke:#000000;stroke-width:0.52916676;stroke-linecap:butt;stroke-linejoin:miter;stroke-miterlimit:4;stroke-dasharray:none;stroke-dashoffset:0;stroke-opacity:1"
       id="circle439106"
       cx="-13.229163"
       cy="283.77081"
       transform="scale(-1,1)"
       r="8.0897903" />
    <path
       id="path439140"
       d="m 5.2483643,284.30269 1.946865,0.94562 2.558739,0.55625 1.2793677,0.0741 0.241041,-0.96416 0.723123,-0.77875 1.260826,-0.37083 1.223747,0.40791 0.83437,0.89001 0.09271,0.77874 1.613119,-0.12979 2.391865,-0.50063 1.353536,-0.51916 0.556247,-0.38937 -0.03708,-1.63166 -0.760204,-2.57728 -2.021034,-2.55874 -2.0952,-1.22375 -2.22499,-0.63041 -2.744153,0.18542 -1.9839507,0.6675 -2.021032,1.53894 -1.353537,1.81708 -0.686038,1.8727 -0.296666,1.55749 z"
       style="fill:#c52727;fill-opacity:1;stroke:none;stroke-width:0.26458332px;stroke-linecap:butt;stroke-linejoin:miter;stroke-opacity:1" />
    <circle
       clip-path="url(#clipPath439132)"
       r="10.20347"
       transform="matrix(-0.79284698,0,0,0.79284698,-39.21436,58.783974)"
       cy="283.77081"
       cx="-66.145836"
       id="circle439124"
       style="opacity:1;vector-effect:none;fill:#000000;fill-opacity:1;stroke:#000000;stroke-width:0.66742599;stroke-linecap:butt;stroke-linejoin:miter;stroke-miterlimit:4;stroke-dasharray:none;stroke-dashoffset:0;stroke-opacity:1" />
    <circle
       r="2.1501844"
       cy="285.89478"
       cx="13.202941"
       id="path439136"
       style="opacity:1;vector-effect:none;fill:#ffffff;fill-opacity:1;stroke:#000000;stroke-width:1.05833328;stroke-linecap:butt;stroke-linejoin:miter;stroke-miterlimit:4;stroke-dasharray:none;stroke-dashoffset:0;stroke-opacity:1" />
    <circle
       style="opacity:1;vector-effect:none;fill:#ffffff;fill-opacity:1;stroke:#000000;stroke-width:0.20000002;stroke-linecap:butt;stroke-linejoin:miter;stroke-miterlimit:4;stroke-dasharray:none;stroke-dashoffset:0;stroke-opacity:1"
       id="circle439138"
       cx="13.202941"
       cy="285.89478"
       r="0.78665286" />
    <circle
       r="8.0897903"
       transform="scale(-1,1)"
       cy="283.77081"
       cx="-13.229163"
       id="circle439142"
       style="opacity:1;vector-effect:none;fill:none;fill-opacity:1;stroke:#000000;stroke-width:0.52916676;stroke-linecap:butt;stroke-linejoin:miter;stroke-miterlimit:4;stroke-dasharray:none;stroke-dashoffset:0;stroke-opacity:1" />
  </g>
</svg>
